<?xml version="1.0" encoding="UTF-8"?>
<svg width="1440px" height="1627px" viewBox="0 0 1440 1627" version="1.1" xmlns="http://www.w3.org/2000/svg" xmlns:xlink="http://www.w3.org/1999/xlink">
    <title>Group 2</title>
    <g id="Page-1" stroke="none" stroke-width="1" fill="none" fill-rule="evenodd">
        <g id="Group-2" transform="translate(0.871362, 0.304214)" fill-rule="nonzero">
            <g id="Group" transform="translate(55.717316, 65.450430)" fill="#EE1D52">
                <path d="M0,1326.28204 L5.33492567,1341.34345 C4.65179494,1339.61935 2.69999287,1334.34949 0,1326.28204 Z M211.119924,984.944387 C220.488574,904.009661 252.302948,858.695323 312.255802,812.242433 C398.037503,749.329347 505.191437,784.917204 505.191437,784.917204 L505.191437,573.79728 C531.241583,573.102643 557.302116,574.713737 583.06834,578.611725 L583.06834,850.302574 C583.06834,850.302574 475.946936,814.714716 390.165235,877.660333 C330.244911,924.080692 298.365477,969.427561 289.029357,1050.36229 C288.736587,1094.31036 296.641385,1151.7584 333.042494,1201.43177 C324.042518,1196.61732 314.869048,1191.13059 305.522085,1184.97157 C225.33555,1128.7922 210.729564,1044.50688 211.119924,984.944387 Z M1025.50934,183.436865 C966.499857,115.969573 944.184254,47.8516809 936.116805,0 L1010.35034,0 C1010.35034,0 995.549178,125.468343 1103.41877,248.854765 L1104.91515,250.513796 C1075.84251,231.433306 1049.18084,208.911238 1025.50934,183.436865 Z M1383.11201,374.713468 L1383.11201,640.939271 C1383.11201,640.939271 1288.38455,637.068197 1218.28233,618.461017 C1120.39945,592.43699 1057.48636,552.522637 1057.48636,552.522637 C1057.48636,552.522637 1014.02624,524.058857 1010.51299,522.074525 L1010.51299,1071.83211 C1010.51299,1102.44287 1002.47808,1178.88845 977.98296,1242.64732 C946.005936,1326.05433 896.657873,1380.80238 887.581994,1391.99271 C887.581994,1391.99271 827.56408,1465.99854 721.678817,1515.83455 C626.235696,1560.79106 542.438327,1559.65251 517.3902,1560.79106 C517.3902,1560.79106 372.533956,1566.77659 242.186107,1478.39248 C213.999232,1458.91156 187.688077,1436.84766 163.593544,1412.48663 L164.244145,1412.97458 C294.624523,1501.35869 439.448237,1495.37316 439.448237,1495.37316 C464.528894,1494.23461 548.326263,1495.37316 643.736854,1450.41665 C749.524527,1400.58064 809.640031,1326.57481 809.640031,1326.57481 C818.61832,1315.38448 868.194093,1260.63643 900.040997,1177.19689 C924.471053,1113.47055 932.571031,1036.99244 932.571031,1006.38168 L932.571031,456.689155 C936.084275,458.706018 979.511871,487.169798 979.511871,487.169798 C979.511871,487.169798 1042.45749,527.11668 1140.34036,553.108178 C1210.47512,571.715358 1305.17005,575.586432 1305.17005,575.586432 L1305.17005,366.97132 C1337.56996,374.550818 1365.18796,376.60021 1383.11201,374.713468 L1383.11201,374.713468 Z" id="Shape"></path>
            </g>
            <path d="M1360.91989,432.42175 L1360.91989,640.971801 C1360.91989,640.971801 1266.22496,637.100727 1196.09021,618.493547 C1098.20733,592.46952 1035.26172,552.555167 1035.26172,552.555167 C1035.26172,552.555167 991.834121,524.091387 988.320878,522.074525 L988.320878,1071.89717 C988.320878,1102.50793 980.285959,1178.98604 955.790843,1242.71238 C923.813819,1326.15192 874.465757,1380.89997 865.389877,1392.0903 C865.389877,1392.0903 805.339433,1466.09613 699.486701,1515.93214 C604.076109,1560.88865 520.27874,1559.7501 495.198083,1560.88865 C495.198083,1560.88865 350.374369,1566.87418 219.993991,1478.49007 L219.34339,1478.00212 C205.578039,1464.09503 192.620701,1449.41077 180.535059,1434.02151 C138.929145,1381.09515 113.425598,1318.50736 107.017181,1300.64837 C107.006052,1300.57288 107.006052,1300.49616 107.017181,1300.42066 C96.7051598,1269.38701 75.0401568,1194.8607 78.0003899,1122.67655 C83.2377255,995.321468 126.177371,917.151795 137.530353,897.568714 C167.597954,844.166252 206.704497,796.386487 253.109566,756.355834 C294.059402,721.812964 340.474559,694.328858 390.451372,675.030748 C444.478136,652.372326 502.331154,640.227608 560.908753,639.24771 L560.908753,850.367634 C560.908753,850.367634 453.754819,814.909896 368.005648,877.692863 C308.052794,924.145752 276.238421,969.460091 266.869771,1050.39482 C266.47941,1109.95731 281.085396,1194.24263 361.206871,1250.45453 C370.553834,1256.63524 379.727304,1262.12197 388.72728,1266.91473 C402.724535,1285.89857 419.760956,1302.44039 439.148834,1315.87243 C517.416097,1367.56265 582.996647,1371.17349 666.859076,1337.60249 C722.778205,1315.15677 764.87207,1264.57256 784.390091,1208.52331 C796.653914,1173.521 796.491264,1138.29097 796.491264,1101.85733 L796.491264,65.4504296 L991.671471,65.4504296 C999.73892,113.30211 1022.05452,181.420003 1081.06401,248.887295 C1104.73551,274.361667 1131.39718,296.883735 1160.46982,315.964226 C1169.05775,325.235286 1212.9733,371.070104 1269.34785,399.208584 C1298.49773,413.753389 1329.2236,424.897656 1360.91989,432.42175 Z" id="Path" fill="#FFFFFF"></path>
            <path d="M390.451372,675.030748 C340.474559,694.328858 294.059402,721.812964 253.109566,756.355834 C206.689604,796.476746 167.592737,844.3572 137.562883,897.861484 C126.209901,917.379505 83.2702555,995.614238 78.03292,1122.96932 C75.0726868,1195.15347 96.7376898,1269.67978 107.049711,1300.71343 C107.038582,1300.78893 107.038582,1300.86565 107.049711,1300.94114 C113.555718,1318.63748 138.961675,1381.22527 180.567589,1434.31428 C192.653231,1449.70354 205.610569,1464.3878 219.37592,1478.29489 C175.27146,1447.79179 135.937211,1410.91319 102.658156,1368.86386 C61.4100723,1316.39291 35.9715852,1254.45572 29.3354582,1236.17384 C29.3276439,1236.04384 29.3276439,1235.91349 29.3354582,1235.78348 L29.3354582,1235.55577 C18.9909072,1204.55465 -2.73915591,1129.99581 0.286137311,1057.71407 C5.52347288,930.358989 48.4631185,852.189316 59.8161006,832.606235 C89.8371904,779.09598 128.935219,731.214104 175.362783,691.100585 C216.304161,656.54581 262.721405,629.060469 312.704589,609.775498 C343.881535,596.839992 376.36,587.297126 409.579032,581.311718 C459.641534,572.572726 510.771973,571.815156 561.071403,579.067146 L561.071403,639.24771 C502.438927,640.206965 444.528778,652.352087 390.451372,675.030748 L390.451372,675.030748 Z" id="Path" fill="#69C9D0"></path>
            <path d="M991.834121,65.4504296 L796.653914,65.4504296 L796.653914,1101.88986 C796.653914,1138.3235 796.653914,1173.45594 784.552741,1208.55584 C764.83954,1264.57256 722.908325,1315.15677 667.021726,1337.60249 C583.126767,1371.30361 517.546217,1367.56265 439.311484,1315.87243 C419.890179,1302.50055 402.809923,1286.01381 388.75981,1267.07738 C455.413851,1302.6327 515.073935,1302.01463 588.982173,1272.34724 C644.836242,1249.90152 686.832517,1199.31731 706.480658,1143.26807 C718.777011,1108.26575 718.614361,1073.03572 718.614361,1036.63461 L718.614361,1.13686838e-13 L988.125697,1.13686838e-13 C988.125697,1.13686838e-13 985.100404,25.7637874 991.834121,65.4504296 Z M1360.91989,374.745998 L1360.91989,432.42175 C1329.27933,424.885769 1298.60867,413.741733 1269.5105,399.208584 C1213.13595,371.070104 1169.2204,325.235286 1160.63247,315.964226 C1170.59781,322.506932 1180.93844,328.459312 1191.60106,333.790685 C1260.14185,368.012281 1327.64167,378.226712 1360.91989,374.745998 L1360.91989,374.745998 Z" id="Shape" fill="#69C9D0"></path>
        </g>
    </g>
</svg>